<svg width="135" height="21" viewBox="0 0 135 21" fill="none" xmlns="http://www.w3.org/2000/svg">
<path d="M8.7959 12.097H16.6092V20.4754H20.0981V8.8783H10.4175L8.7959 12.097Z" fill="#050505"/>
<path d="M3.48893 13.178C3.43979 12.8832 3.4398 12.5638 3.4398 12.2444V8.73087C3.4398 7.99377 3.53808 7.37951 3.68551 6.86354C4.52089 4.06256 7.34643 3.74316 9.72973 3.74316H18.3047L19.9263 0.524475H7.88698C3.14496 0.524475 0.614257 3.27632 0.0982861 6.86354C0.024576 7.3058 0 7.77264 0 8.26404V12.7603C0 12.9078 0 13.0552 0 13.2026C0.17199 17.2567 2.7027 20.4999 7.88698 20.4999H13.6855L15.3071 17.2567H9.72973C7.10073 17.2567 3.93119 16.8635 3.48893 13.178Z" fill="#050505"/>
<path d="M40.811 3.71867L42.4081 0.5H24.8896V10.8194V12.0971V20.4754H41.7447V17.2568H28.354V12.0971H40.1231V8.87838H28.354V3.71867H40.811Z" fill="#050505"/>
<path d="M62.4565 3.71867L64.0536 0.5H46.5352V9.68918V12.0971V20.4754H63.3902V17.2568H49.9995V12.0971H61.7686V8.87838H49.9995V3.71867H62.4565Z" fill="#050505"/>
<path d="M71.646 0.5H68.1816V20.5H71.646V0.5Z" fill="#050505"/>
<path d="M86.8796 0.5H82.113L73.8329 8.16585C73.145 8.82925 72.3096 9.51721 72.3096 10.5C72.3096 11.4828 73.1204 12.1462 73.8329 12.8096L82.113 20.5H86.8796L76.2162 10.5L86.8796 0.5Z" fill="#050505"/>
<path d="M99.73 0.5H94.7669C89.4106 0.5 86.8799 3.98895 86.8799 8.23956V12.7359C86.8799 16.9865 89.4106 20.4754 94.7669 20.4754H99.73C105.062 20.4754 107.617 16.9865 107.617 12.7359V8.23956C107.592 3.96438 105.062 0.5 99.73 0.5ZM104.128 12.2445C104.128 16.8145 100.688 17.2568 97.8135 17.2568H96.6096C93.7841 17.2568 90.2951 16.7899 90.2951 12.2445V8.73096C90.2951 4.16093 93.7595 3.71867 96.6096 3.71867H97.8135C100.664 3.71867 104.128 4.18551 104.128 8.73096V12.2445Z" fill="#050505"/>
<path d="M133.464 0.5H132.457L131.105 1.92506L123.464 10.0577L115.823 1.92506L114.471 0.5H113.464H112.383V20.4754H115.823V6.74078L121.13 12.4656C121.793 13.1536 122.457 13.9889 123.464 13.9889C124.471 13.9889 125.11 13.1781 125.773 12.4656L131.105 6.74078V20.5H134.545V0.5H133.464Z" fill="#050505"/>
</svg>
